<?xml version="1.0" encoding="utf-8"?>
<!-- Generator: Adobe Illustrator 18.0.0, SVG Export Plug-In . SVG Version: 6.00 Build 0)  -->
<!DOCTYPE svg PUBLIC "-//W3C//DTD SVG 1.1//EN" "http://www.w3.org/Graphics/SVG/1.1/DTD/svg11.dtd">
<svg version="1.1" xmlns="http://www.w3.org/2000/svg" xmlns:xlink="http://www.w3.org/1999/xlink" x="0px" y="0px"
	 viewBox="0 0 80.6 117.7" enable-background="new 0 0 80.6 117.7" xml:space="preserve">
<g id="Layer_1">
	<g id="code_x5F_html5">
	</g>
	<g>
		<polygon fill="#E6A329" points="80.6,26.5 40.3,26.5 40.3,26.5 0,26.5 7.5,108.4 40.3,117.7 40.3,117.7 40.3,117.7 40.3,117.7 
			40.3,117.7 73,108.4 		"/>
		<polygon fill="#F1BF22" points="40.3,33.2 40.3,110.8 40.3,110.8 66.8,103.3 73.2,33.2 		"/>
		<polygon fill="#FFFFFF" points="61.4,43.3 20.6,43.3 17.8,73.9 17.8,73.7 52.5,73.7 51.3,86.7 40.3,89.9 29.1,86.6 28.4,78.8 
			18.2,78.8 19.7,94.5 40.3,100.3 60.9,94.5 63.7,63.7 27,63.7 27.5,53.4 53,53.4 53.3,59.3 63.6,59.3 		"/>
		<g>
			<path fill="#EBEBEB" d="M40.3,43.3H20.6l-2.8,30.7l0.1-0.2h22.5v-10H28.4l0.5-10.3h11.4V43.3z M28.4,78.8H18.2l1.5,15.7l20.6,5.8
				V89.9l-11.2-3.2L28.4,78.8z"/>
		</g>
		<g>
			<polygon points="32.4,14.5 25.3,14.5 25.3,19.6 32.4,19.6 36.3,19.6 37.6,19.6 37.6,4.3 32.4,4.3 			"/>
			<path d="M55.3,4.4H42.8c0,0,0,2.7,0,5.4c1.7,1.7,2.5,2.5,5,4.9c-1.4,0-5,0-5,0v4.9h12.5v-4.9l-5-4.9h5V4.4z"/>
		</g>
	</g>
</g>
<g id="Layer_2">
</g>
</svg>
