<?xml version="1.0" encoding="utf-8"?>
<!-- Generator: Adobe Illustrator 18.0.0, SVG Export Plug-In . SVG Version: 6.00 Build 0)  -->
<!DOCTYPE svg PUBLIC "-//W3C//DTD SVG 1.1//EN" "http://www.w3.org/Graphics/SVG/1.1/DTD/svg11.dtd">
<svg version="1.1" id="Layer_1" xmlns="http://www.w3.org/2000/svg" xmlns:xlink="http://www.w3.org/1999/xlink" x="0px" y="0px"
	 viewBox="0 0 1920 2000" enable-background="new 0 0 1920 2000" xml:space="preserve">
<g>
	<path d="M1039.8,902.3v-2.8c-0.6,0.9-1.4,1.9-1.9,2.8H1039.8z"/>
	<path fill="#FFFFFF" d="M0,0v2000h1920V0H0z M597.2,1635.1H312.3v-857h284.9V1635.1z M454.8,661.1h-1.9
		c-95.6,0-157.5-65.8-157.5-148.1c0-84.1,63.7-148.1,161.2-148.1c97.5,0,157.4,64,159.3,148.1C615.9,595.3,554.1,661.1,454.8,661.1z
		 M1624.6,1635.1h-284.9v-458.5c0-115.2-41.2-193.8-144.3-193.8c-78.8,0-125.6,52.9-146.2,104.2c-7.5,18.3-9.5,43.8-9.5,69.5v478.6
		h-285c0,0,3.8-776.6,0-857h285v121.4c37.9-58.3,105.4-141.6,256.8-141.6c187.5,0,328.1,122.5,328.1,385.7V1635.1z"/>
</g>
</svg>
