<?xml version="1.0" encoding="utf-8"?>
<!-- Generator: Adobe Illustrator 18.0.0, SVG Export Plug-In . SVG Version: 6.00 Build 0)  -->
<!DOCTYPE svg PUBLIC "-//W3C//DTD SVG 1.1//EN" "http://www.w3.org/Graphics/SVG/1.1/DTD/svg11.dtd">
<svg version="1.1" id="Capa_1" xmlns="http://www.w3.org/2000/svg" xmlns:xlink="http://www.w3.org/1999/xlink" x="0px" y="0px"
	 viewBox="0 40 1920 1920" enable-background="new 0 40 1920 1920" xml:space="preserve">
<circle fill="#FFFFFF" cx="959.9" cy="1000" r="960"/>
<g>
	<g>
		<path fill="#3AAA35" d="M1116.7,537.2l-43-11.9c-5.6-1.9-10.9-1.2-16.3,1.7s-9,7.5-10.7,13.6l-258.7,894.6
			c-1.9,6.1-1.2,11.6,1.7,17s7.5,9,13.6,10.7l43,11.9c5.6,1.9,10.9,1.2,16.3-1.7c5.3-2.9,9-7.5,10.7-13.6l258.5-894.6
			c1.9-6.1,1.2-11.6-1.7-17C1127.1,542.5,1122.5,539.1,1116.7,537.2z"/>
		<path fill="#3AAA35" d="M729.3,711.9c0-6.1-2.4-11.4-7-16l-34.7-34.7c-4.6-4.6-10-7-16-7s-11.4,2.4-16,7L332.8,984
			c-4.6,4.6-7,10-7,16s2.4,11.4,7,16l322.8,322.8c4.6,4.6,10,7,16,7s11.4-2.4,16-7l34.7-34.7c4.6-4.6,7-10,7-16s-2.4-11.4-7-16
			L450,1000l272.3-272.3C726.9,723.1,729.3,717.7,729.3,711.9z"/>
		<path fill="#3AAA35" d="M1587,984.2l-322.8-322.8c-4.6-4.6-10-7-16-7s-11.4,2.4-16,7l-34.7,34.7c-4.6,4.6-7,10-7,16s2.2,11.4,7,16
			l272.3,272.3l-272.1,271.8c-4.6,4.6-7,10-7,16s2.2,11.4,7,16l34.7,34.7c4.6,4.6,10,7,16,7s11.4-2.4,16-7l322.8-322.8
			c4.6-4.6,7-10,7-16C1594,994.2,1591.6,988.8,1587,984.2z"/>
	</g>
</g>
</svg>
