<?xml version="1.0" encoding="utf-8"?>
<!-- Generator: Adobe Illustrator 18.0.0, SVG Export Plug-In . SVG Version: 6.00 Build 0)  -->
<!DOCTYPE svg PUBLIC "-//W3C//DTD SVG 1.1//EN" "http://www.w3.org/Graphics/SVG/1.1/DTD/svg11.dtd">
<svg version="1.1" id="Capa_1" xmlns="http://www.w3.org/2000/svg" xmlns:xlink="http://www.w3.org/1999/xlink" x="0px" y="0px"
	 viewBox="0 0 1920 2000" enable-background="new 0 0 1920 2000" xml:space="preserve">
<g>
	<g>
		<g>
			<path fill="#3AAA35" d="M1803.2,137.1H116.9C52.6,137.1,0,189.8,0,254v1212.4c0,64.1,52.6,116.8,116.9,116.8h1686.3
				c64.3,0,116.8-52.7,116.8-116.8V254C1920,189.8,1867.4,137.1,1803.2,137.1z M1773.8,1380.4H146.2V301h1627.5V1380.4z"/>
			<polygon fill="#3AAA35" points="743.7,1638.7 523,1862.9 1400.2,1862.9 1179.5,1638.7 			"/>
			<path fill="#3AAA35" d="M394.7,1164c43.1,0,78.2-35,78.2-78.1c0-7.8-2.3-14.9-4.4-22.1c99.9-80.6,276.5-222.6,357-284.7
				c12.7,9,27.4,15.4,44.2,15.4c13.9,0,26.3-4.6,37.6-11c51.7,44,139.7,118.8,202.2,172c-0.8,4.5-2.6,8.6-2.6,13.3
				c0,43.2,35.1,78.2,78.3,78.2c43.2,0,78.3-35,78.3-78.2c0-7.7-2.3-14.7-4.4-21.7l202.2-182.6c10.9,5.7,22.6,9.7,35.8,9.7
				c43.2,0,78.2-35,78.2-78.2s-35-78.2-78.2-78.2c-43.2,0-78.1,35-78.1,78.3c0,10.3,2.2,20.1,5.8,29.1
				c-56.5,51-143.7,129.8-198.1,178.9c-12.1-7.8-25.8-13.6-41.4-13.6c-18.5,0-34.6,7.3-48,18c-51.7-43.9-135.2-114.9-194.6-165.4
				c3.1-8.4,5.4-17.2,5.4-26.8c0-43.2-35-78.2-78.2-78.2s-78.2,35-78.2,78.2c0,9.6,2.3,18.5,5.4,26.9l-358.9,279.2
				c-12.5-8.6-26.9-14.8-43.3-14.8c-43.2,0-78.2,35-78.2,78.2C316.6,1129,351.6,1164,394.7,1164z"/>
		</g>
	</g>
</g>
</svg>
