<?xml version="1.0" encoding="utf-8"?>
<!-- Generator: Adobe Illustrator 18.0.0, SVG Export Plug-In . SVG Version: 6.00 Build 0)  -->
<!DOCTYPE svg PUBLIC "-//W3C//DTD SVG 1.1//EN" "http://www.w3.org/Graphics/SVG/1.1/DTD/svg11.dtd">
<svg version="1.1" id="Capa_1" xmlns="http://www.w3.org/2000/svg" xmlns:xlink="http://www.w3.org/1999/xlink" x="0px" y="0px"
	 viewBox="0 0 1920 2000" enable-background="new 0 0 1920 2000" xml:space="preserve">
<g>
	<path fill="#3AAA35" d="M960,40C430.7,40,0,470.7,0,1000s430.7,960,960,960s960-430.7,960-960S1489.3,40,960,40z M960,1785.5
		c-433.1,0-785.5-352.3-785.5-785.4S526.9,214.5,960,214.5s785.5,352.4,785.5,785.5S1393.1,1785.5,960,1785.5z"/>
	<path fill="#3AAA35" d="M960,447.3c-64.2,0-116.3,52.2-116.3,116.4c0,64.1,52.2,116.3,116.3,116.3s116.3-52.2,116.3-116.3
		C1076.3,499.5,1024.1,447.3,960,447.3z"/>
	<path fill="#3AAA35" d="M960,854.5c-48.2,0-87.3,39.1-87.3,87.3v523.6c0,48.2,39.1,87.3,87.3,87.3c48.2,0,87.3-39.1,87.3-87.3
		V941.8C1047.3,893.6,1008.2,854.5,960,854.5z"/>
</g>
</svg>
