<?xml version="1.0" encoding="utf-8"?>
<!-- Generator: Adobe Illustrator 18.0.0, SVG Export Plug-In . SVG Version: 6.00 Build 0)  -->
<!DOCTYPE svg PUBLIC "-//W3C//DTD SVG 1.1//EN" "http://www.w3.org/Graphics/SVG/1.1/DTD/svg11.dtd">
<svg version="1.1" id="Calque_1" xmlns="http://www.w3.org/2000/svg" xmlns:xlink="http://www.w3.org/1999/xlink" x="0px" y="0px"
	 viewBox="0 0 417 150" enable-background="new 0 0 417 150" xml:space="preserve">
<g>
	<g>
		<g>
			<path fill="#878787" d="M30.2,68.1c12.5,23,25.1,45.9,37.6,68.9c0.4,0.8,5.1,1.2,5.8,1.4c0.7,0.2,5.5,0.7,5.9,1.3
				c-12.5-23-25.1-45.9-37.6-68.9c-0.4-0.8-5.1-1.2-5.8-1.4C35.4,69.3,30.5,68.8,30.2,68.1L30.2,68.1z"/>
		</g>
	</g>
	<g>
		<line fill="#FFFFFF" x1="14.1" y1="22.6" x2="14.1" y2="141.6"/>
		<g>
			<path fill="#878787" d="M9.1,24.8c0,39.7,0,79.3,0,119c0-1.4,10.1-2.9,10.1-4.5c0-39.7,0-79.3,0-119C19.1,21.7,9.1,23.2,9.1,24.8
				L9.1,24.8z"/>
		</g>
	</g>
	<g>
		<g>
			<line fill="#3AAA35" x1="14.1" y1="89.6" x2="107.5" y2="0.1"/>
			<g>
				<path fill="#3AAA35" d="M98.7,6.3c-0.3,0.3-0.6,0.6-1,0.9C97.9,7,98.2,7,98.5,7C98.8,6.9,98.7,6.6,98.7,6.3z"/>
				<path fill="#3AAA35" d="M96.8,7.9C96.7,7.9,96.7,8,96.6,8c0,0.1,0,0.1-0.1,0.2C96.6,8.1,96.7,8,96.8,7.9z"/>
				<path fill="#3AAA35" d="M95.4,9.7c0.3-0.2,0.6-0.5,0.8-0.8C95.9,9,95.6,9.3,95.4,9.7z"/>
				<path fill="#3AAA35" d="M96.9,8.6c-0.2,0-0.4-0.1-0.3-0.4c0,0,0,0,0,0c-0.1,0.2-0.2,0.4-0.4,0.6C96.4,8.7,96.7,8.7,96.9,8.6z"/>
				<path fill="#3AAA35" d="M96.9,8.6c0.2,0,0.5,0,0.6,0C97.3,8.6,97.1,8.6,96.9,8.6z"/>
				<path fill="#3AAA35" d="M99.4,12.1c-0.1,0.3-0.9-0.7-1-0.1c-0.5,1-0.8,2-1.5,2.7c-0.1,0.5-1.6,0-1.7,0.5c-0.5,1-1.4,4-0.3,2.9
					c1.6-1.8,2.5-3.1,3.9-4.7c0.9-1.6,1.7-3.1,2.7-4.7c0.3-0.4,0.7-0.6,1.1-0.9c-0.6,0.3-1.2,0.6-1.8,0.9
					C100,9,100.3,10.9,99.4,12.1z"/>
				<path fill="#3AAA35" d="M106.1,0.2C106,0.5,105.9,1,105.9,1c-1.3,0.1-1.9,1-2.4,2c0.2,0,0.5,0.1,0.8,0.1
					c0.4-0.5,0.2-0.8-0.4-0.6c1.4-0.3,2.3-1,3.1-2C106.7,0.4,106.4,0.1,106.1,0.2z"/>
				<path fill="#3AAA35" d="M107.4,0c-0.1,0.2-0.3,0.4-0.4,0.6c0,0,0.1,0,0.1,0.1C107.2,0.4,107.3,0.2,107.4,0
					C107.4,0,107.4,0,107.4,0z"/>
				<path fill="#3AAA35" d="M92.7,13.8c-2.1,2.1-4.2,4-6.3,5.8c0,0.3,0.1,0.6-0.2,0.7c-0.3,0-0.5,0.1-0.8,0.1
					c-0.3,0.3-0.6,0.5-0.9,0.8c-0.1,0.1-0.2,0.2-0.2,0.4c0,0,0,0,0,0c-0.1,0.3,0.1,0.3,0.3,0.4c0.2,0,0.4,0,0.6,0
					c-0.1,0-0.4,0-0.6,0c-0.2,0-0.5,0.1-0.7,0.2c-0.2,0.3-0.5,0.6-0.8,0.8c0.2-0.4,0.5-0.7,0.8-0.8c0.1-0.2,0.3-0.4,0.4-0.6
					c0-0.1,0-0.1,0.1-0.2c-0.7,0.6-1.4,1.2-2.1,1.8c-0.1,0.2-0.3,0.3-0.3,0.5c-0.4,0.6-0.7,1.1-1.4,1c-0.1,0.1-0.3,0.2-0.4,0.3
					c0,0,0.1,0,0.1,0c-0.1,0-0.1,0-0.2,0c-0.5,0.4-1.1,0.9-1.6,1.3c-0.2,0.5-0.3,1-0.5,1.4c0,0-0.5-0.1-0.8-0.1c0.1,0.3,0,0.7-0.1,1
					c0.5,0,1,0.1,1.4,0c0.8,0.1-0.1-1.6,1.1-1.2c-1.2-0.4-0.3,1.3-1.1,1.2c-0.4,0-0.9,0-1.4,0c-0.3,0.6-1.1,1-2,1.1
					c0.3-1,1.1-1.1,2-1.1c0.2-0.3,0.2-0.6,0.1-1c0.2,0,0.8,0.1,0.8,0.1c0.2-0.4,0.4-1,0.5-1.4c-1.1,0.9-2.1,1.7-3.2,2.6
					c-7,5.7-12.9,11.5-20.1,17.6c-3.9,3.2-7.8,6.2-11.7,9c-7.8,5.6-13,12.7-22,17.2c-3.4,1.8-7.9,6.9-10.4,9.5C9,87,14.3,89,14.7,89
					c5.2,1.2,5.1-2.2,11.2-4.5c-4,1.7,0.2-4.1,5.1-4.6c7.2-0.5,10.4-8.7,16.1-12.5c1.4-1,2.6-2.4,4.2-3.7
					c8.7-6.2,14.5-14.4,22.8-21.9c2.1-2.1,3.2-4.7,4.6-6.8c1.2-1.4,3-2.3,4-3.3c1.7-1.6,2.8-3.3,3.8-5c-1.4,1.6-2.3,3-3.9,4.7
					c-1.1,1.2-0.3-1.9,0.3-2.9c0.1-0.5,1.6,0,1.7-0.5c0.7-0.7,1-1.7,1.5-2.7c0.1-0.5,0.9,0.4,1,0.1c0.8-1.2,0.6-3.1,1.5-3.5
					c0.6-0.4,1.2-0.7,1.8-0.9c0.3-0.2,0.6-0.4,0.9-0.8c0.1-0.2,0.2-0.5,0.4-0.8c-0.4-0.1-0.8-0.4-1.1-0.7c0.3-0.2,0.9-0.4,1.2-0.6
					c-0.3,0.2-0.9,0.4-1.2,0.6c0.4,0.3,0.7,0.6,1.1,0.7c0.9-1.8,2-3.8,3.1-5.6c0,0-0.1,0-0.1-0.1c-0.8,0.9-1.7,1.6-3.1,2
					c0.6-0.2,0.8,0.1,0.4,0.6c-0.3,0-0.5-0.1-0.8-0.1c0.5-1,1.1-2,2.4-2c0,0,0.1-0.5,0.2-0.8c0.4-0.1,0.6,0.2,0.9,0.4
					c0.2-0.2,0.3-0.4,0.4-0.6C94.4,13.3,92.7,13.8,92.7,13.8z"/>
				<path fill="#3AAA35" d="M83.9,22.2c0.1-0.1,0.2-0.3,0.3-0.5c-0.6,0.5-1.2,1-1.8,1.5C83.1,23.3,83.5,22.8,83.9,22.2z"/>
			</g>
		</g>
	</g>
</g>
<g>
	<path fill="#878787" d="M80.3,73.9c0-3.6,0.5-7,1.6-10.1c1-3.1,2.5-5.8,4.5-8.1c2-2.3,4.3-4.1,7.1-5.4c2.8-1.3,6-2,9.5-2
		c3.5,0,6.7,0.7,9.5,2c2.8,1.3,5.2,3.1,7.2,5.4c2,2.3,3.5,5,4.5,8.1c1,3.1,1.6,6.4,1.6,10.1v1c0,3.6-0.5,7-1.6,10
		c-1,3.1-2.6,5.8-4.5,8c-2,2.3-4.3,4.1-7.1,5.4c-2.8,1.3-6,1.9-9.5,1.9c-3.5,0-6.7-0.6-9.5-1.9c-2.8-1.3-5.2-3.1-7.2-5.4
		c-2-2.3-3.5-5-4.5-8c-1-3.1-1.6-6.4-1.6-10V73.9z M88.8,74.9c0,2.5,0.3,4.8,0.9,7.1c0.6,2.2,1.5,4.2,2.7,5.9c1.2,1.7,2.7,3,4.5,4
		c1.8,1,3.9,1.5,6.2,1.5c2.3,0,4.4-0.5,6.2-1.5c1.8-1,3.3-2.3,4.4-4c1.2-1.7,2.1-3.7,2.7-5.9c0.6-2.2,0.9-4.6,0.9-7.1v-1
		c0-2.4-0.3-4.8-0.9-7c-0.6-2.2-1.5-4.2-2.7-5.9c-1.2-1.7-2.7-3-4.4-4c-1.8-1-3.8-1.5-6.2-1.5c-2.4,0-4.4,0.5-6.2,1.5
		c-1.8,1-3.2,2.4-4.4,4c-1.2,1.7-2.1,3.7-2.7,5.9c-0.6,2.2-0.9,4.6-0.9,7V74.9z"/>
	<path fill="#878787" d="M137.9,74c0-3.7,0.5-7.2,1.4-10.3c0.9-3.1,2.3-5.8,4-8.1c1.7-2.2,3.8-4,6.3-5.3c2.5-1.3,5.2-1.9,8.3-1.9
		c3,0,5.6,0.5,7.8,1.5c2.2,1,4.2,2.5,5.8,4.4V28.4h8.6v71h-7.9l-0.4-5.3c-1.7,2-3.7,3.6-6,4.6c-2.3,1-5,1.6-8.1,1.6
		c-3,0-5.8-0.6-8.2-1.9c-2.5-1.3-4.5-3.1-6.3-5.4c-1.7-2.3-3.1-5-4-8.1c-1-3.1-1.4-6.4-1.4-10V74z M146.4,74.9
		c0,2.4,0.3,4.7,0.8,6.9c0.5,2.2,1.3,4.1,2.4,5.8c1.1,1.7,2.5,3,4.2,4c1.7,1,3.7,1.5,6.1,1.5c1.4,0,2.8-0.2,3.9-0.5
		c1.2-0.3,2.2-0.8,3.2-1.5c1-0.6,1.8-1.4,2.5-2.3s1.4-1.9,1.9-2.9V62.7c-1.1-2-2.6-3.7-4.5-5c-1.9-1.3-4.2-2-7-2
		c-2.4,0-4.5,0.5-6.2,1.5c-1.7,1-3.1,2.3-4.2,4c-1.1,1.7-1.9,3.6-2.4,5.8c-0.5,2.2-0.8,4.5-0.8,7V74.9z"/>
	<path fill="#878787" d="M225.6,99.4c-0.5-1-0.9-2.7-1.2-5.3c-4,4.1-8.7,6.2-14.2,6.2c-4.9,0-9-1.4-12.1-4.2
		c-3.2-2.8-4.7-6.3-4.7-10.6c0-5.2,2-9.3,5.9-12.1c4-2.9,9.5-4.3,16.7-4.3h8.3v-3.9c0-3-0.9-5.4-2.7-7.1c-1.8-1.8-4.4-2.7-7.9-2.7
		c-3.1,0-5.6,0.8-7.7,2.3c-2.1,1.5-3.1,3.4-3.1,5.6h-8.6c0-2.5,0.9-4.9,2.7-7.2c1.8-2.3,4.2-4.2,7.2-5.5c3-1.4,6.4-2,10-2
		c5.8,0,10.3,1.4,13.5,4.3c3.3,2.9,5,6.9,5.1,11.9v23c0,4.6,0.6,8.2,1.8,11v0.7H225.6z M211.4,92.9c2.7,0,5.2-0.7,7.6-2.1
		c2.4-1.4,4.1-3.2,5.2-5.4V75.1h-6.7c-10.5,0-15.7,3.1-15.7,9.2c0,2.7,0.9,4.8,2.7,6.3C206.3,92.1,208.6,92.9,211.4,92.9z"/>
	<path fill="#878787" d="M246.3,36.1c0-1.4,0.4-2.6,1.3-3.5c0.8-1,2.1-1.4,3.8-1.4c1.7,0,2.9,0.5,3.8,1.4c0.9,1,1.3,2.1,1.3,3.5
		s-0.4,2.5-1.3,3.5c-0.9,0.9-2.1,1.4-3.8,1.4c-1.7,0-2.9-0.5-3.8-1.4S246.3,37.5,246.3,36.1z M255.5,99.4H247v-50h8.6V99.4z"/>
	<path fill="#3AAA35" d="M277.3,92.4h29.3v7h-39.7v-6.3l27.6-36.7h-27.2v-7.1h37.9v6.1L277.3,92.4z"/>
	<path fill="#3AAA35" d="M336.2,100.3c-6.8,0-12.3-2.2-16.6-6.7c-4.3-4.5-6.4-10.4-6.4-17.9v-1.6c0-5,0.9-9.4,2.8-13.3
		c1.9-3.9,4.5-7,8-9.2c3.4-2.2,7.1-3.3,11.1-3.3c6.5,0,11.6,2.1,15.2,6.4c3.6,4.3,5.4,10.4,5.4,18.4v3.6h-33.9
		c0.1,4.9,1.6,8.9,4.3,12c2.8,3,6.3,4.6,10.5,4.6c3,0,5.6-0.6,7.7-1.8c2.1-1.2,3.9-2.9,5.5-4.9l5.2,4.1
		C350.8,97.1,344.5,100.3,336.2,100.3z M335.1,55.5c-3.5,0-6.3,1.3-8.7,3.8s-3.8,6-4.3,10.6h25.1v-0.6c-0.2-4.3-1.4-7.7-3.5-10.1
		C341.5,56.7,338.7,55.5,335.1,55.5z"/>
	<path fill="#3AAA35" d="M373.7,49.4l0.3,6.3c3.8-4.8,8.8-7.2,15-7.2c10.6,0,15.9,6,16,17.9v33.1h-8.6V66.3c0-3.6-0.9-6.3-2.5-8
		c-1.6-1.7-4.1-2.6-7.6-2.6c-2.8,0-5.2,0.7-7.3,2.2c-2.1,1.5-3.7,3.4-4.9,5.8v35.6h-8.6v-50H373.7z"/>
</g>
<g>
	<path fill="#878787" d="M93.7,135.4h-2.1l8.1-21h2.1L93.7,135.4z"/>
	<path fill="#878787" d="M112.9,129.9c0-0.7-0.3-1.2-0.8-1.5c-0.5-0.4-1.4-0.7-2.6-1c-1.2-0.3-2.2-0.6-3-1s-1.3-0.8-1.6-1.3
		c-0.4-0.5-0.5-1.1-0.5-1.8c0-1.2,0.5-2.2,1.5-3c1-0.8,2.3-1.2,3.8-1.2c1.6,0,3,0.4,4,1.3s1.5,1.9,1.5,3.2h-2.5
		c0-0.7-0.3-1.3-0.9-1.7c-0.6-0.5-1.3-0.7-2.2-0.7c-0.9,0-1.6,0.2-2.1,0.6c-0.5,0.4-0.8,0.9-0.8,1.5c0,0.6,0.2,1,0.7,1.3
		c0.5,0.3,1.3,0.6,2.5,0.9c1.2,0.3,2.2,0.6,3,1c0.8,0.4,1.3,0.8,1.7,1.4c0.4,0.5,0.6,1.2,0.6,2c0,1.3-0.5,2.3-1.5,3.1
		c-1,0.8-2.4,1.2-4,1.2c-1.2,0-2.2-0.2-3.1-0.6c-0.9-0.4-1.6-1-2.1-1.7s-0.8-1.5-0.8-2.4h2.5c0,0.8,0.4,1.5,1,2
		c0.6,0.5,1.4,0.7,2.4,0.7c0.9,0,1.7-0.2,2.2-0.6C112.6,131,112.9,130.5,112.9,129.9z"/>
	<path fill="#878787" d="M118.5,115.5c0-0.4,0.1-0.7,0.4-1c0.2-0.3,0.6-0.4,1.1-0.4s0.8,0.1,1.1,0.4c0.2,0.3,0.4,0.6,0.4,1
		s-0.1,0.7-0.4,1c-0.2,0.3-0.6,0.4-1.1,0.4s-0.8-0.1-1.1-0.4C118.6,116.3,118.5,115.9,118.5,115.5z M121.2,133.7h-2.5v-14.4h2.5
		V133.7z"/>
	<path fill="#878787" d="M128.5,115.9v3.5h2.7v1.9h-2.7v8.9c0,0.6,0.1,1,0.4,1.3c0.2,0.3,0.6,0.4,1.2,0.4c0.3,0,0.7-0.1,1.2-0.2v2
		c-0.6,0.2-1.3,0.3-1.9,0.3c-1.1,0-1.9-0.3-2.5-1s-0.8-1.6-0.8-2.8v-8.9h-2.6v-1.9h2.6v-3.5H128.5z"/>
	<path fill="#878787" d="M140,134c-1.9,0-3.5-0.6-4.8-1.9c-1.2-1.3-1.8-3-1.8-5.1v-0.5c0-1.4,0.3-2.7,0.8-3.8s1.3-2,2.3-2.6
		c1-0.6,2-1,3.2-1c1.9,0,3.3,0.6,4.4,1.8c1,1.2,1.6,3,1.6,5.3v1h-9.7c0,1.4,0.4,2.6,1.2,3.4c0.8,0.9,1.8,1.3,3,1.3
		c0.9,0,1.6-0.2,2.2-0.5s1.1-0.8,1.6-1.4l1.5,1.2C144.2,133.1,142.4,134,140,134z M139.7,121.1c-1,0-1.8,0.4-2.5,1.1
		c-0.7,0.7-1.1,1.7-1.2,3h7.2V125c-0.1-1.2-0.4-2.2-1-2.9C141.5,121.4,140.7,121.1,139.7,121.1z"/>
	<path fill="#878787" d="M156.8,129.9c0-0.7-0.3-1.2-0.8-1.5c-0.5-0.4-1.4-0.7-2.6-1c-1.2-0.3-2.2-0.6-3-1s-1.3-0.8-1.6-1.3
		c-0.4-0.5-0.5-1.1-0.5-1.8c0-1.2,0.5-2.2,1.5-3c1-0.8,2.3-1.2,3.8-1.2c1.6,0,3,0.4,4,1.3s1.5,1.9,1.5,3.2h-2.5
		c0-0.7-0.3-1.3-0.9-1.7c-0.6-0.5-1.3-0.7-2.2-0.7c-0.9,0-1.6,0.2-2.1,0.6c-0.5,0.4-0.8,0.9-0.8,1.5c0,0.6,0.2,1,0.7,1.3
		c0.5,0.3,1.3,0.6,2.5,0.9c1.2,0.3,2.2,0.6,3,1c0.8,0.4,1.3,0.8,1.7,1.4c0.4,0.5,0.6,1.2,0.6,2c0,1.3-0.5,2.3-1.5,3.1
		c-1,0.8-2.4,1.2-4,1.2c-1.2,0-2.2-0.2-3.1-0.6c-0.9-0.4-1.6-1-2.1-1.7s-0.8-1.5-0.8-2.4h2.5c0,0.8,0.4,1.5,1,2
		c0.6,0.5,1.4,0.7,2.4,0.7c0.9,0,1.7-0.2,2.2-0.6C156.5,131,156.8,130.5,156.8,129.9z"/>
	<path fill="#878787" d="M175.2,134c-1.9,0-3.5-0.6-4.8-1.9c-1.2-1.3-1.8-3-1.8-5.1v-0.5c0-1.4,0.3-2.7,0.8-3.8s1.3-2,2.3-2.6
		c1-0.6,2-1,3.2-1c1.9,0,3.3,0.6,4.4,1.8c1,1.2,1.6,3,1.6,5.3v1H171c0,1.4,0.4,2.6,1.2,3.4c0.8,0.9,1.8,1.3,3,1.3
		c0.9,0,1.6-0.2,2.2-0.5s1.1-0.8,1.6-1.4l1.5,1.2C179.4,133.1,177.6,134,175.2,134z M174.9,121.1c-1,0-1.8,0.4-2.5,1.1
		c-0.7,0.7-1.1,1.7-1.2,3h7.2V125c-0.1-1.2-0.4-2.2-1-2.9C176.7,121.4,175.9,121.1,174.9,121.1z"/>
	<path fill="#878787" d="M187,115.9v3.5h2.7v1.9H187v8.9c0,0.6,0.1,1,0.4,1.3c0.2,0.3,0.6,0.4,1.2,0.4c0.3,0,0.7-0.1,1.2-0.2v2
		c-0.6,0.2-1.3,0.3-1.9,0.3c-1.1,0-1.9-0.3-2.5-1s-0.8-1.6-0.8-2.8v-8.9h-2.6v-1.9h2.6v-3.5H187z"/>
	<path fill="#878787" d="M208.1,133.7c-0.1-0.3-0.3-0.8-0.3-1.5c-1.1,1.2-2.5,1.8-4.1,1.8c-1.4,0-2.6-0.4-3.5-1.2
		c-0.9-0.8-1.4-1.8-1.4-3.1c0-1.5,0.6-2.7,1.7-3.5c1.1-0.8,2.7-1.2,4.8-1.2h2.4v-1.1c0-0.9-0.3-1.5-0.8-2.1
		c-0.5-0.5-1.3-0.8-2.3-0.8c-0.9,0-1.6,0.2-2.2,0.7c-0.6,0.4-0.9,1-0.9,1.6h-2.5c0-0.7,0.3-1.4,0.8-2.1c0.5-0.7,1.2-1.2,2.1-1.6
		c0.9-0.4,1.8-0.6,2.9-0.6c1.7,0,3,0.4,3.9,1.2c0.9,0.8,1.4,2,1.5,3.4v6.6c0,1.3,0.2,2.4,0.5,3.2v0.2H208.1z M204.1,131.9
		c0.8,0,1.5-0.2,2.2-0.6c0.7-0.4,1.2-0.9,1.5-1.6v-3h-1.9c-3,0-4.5,0.9-4.5,2.6c0,0.8,0.3,1.4,0.8,1.8
		C202.6,131.6,203.3,131.9,204.1,131.9z"/>
	<path fill="#878787" d="M226.2,126.7c0,2.2-0.5,4-1.5,5.3s-2.4,2-4.1,2c-1.7,0-3.1-0.6-4.1-1.7v6.9h-2.5v-19.9h2.2l0.1,1.6
		c1-1.2,2.4-1.9,4.2-1.9c1.7,0,3.1,0.7,4.1,2c1,1.3,1.5,3.1,1.5,5.4V126.7z M223.8,126.4c0-1.6-0.3-2.9-1-3.8
		c-0.7-0.9-1.6-1.4-2.8-1.4c-1.5,0-2.6,0.7-3.3,2v6.9c0.7,1.3,1.9,2,3.4,2c1.2,0,2.1-0.5,2.8-1.4S223.8,128.3,223.8,126.4z"/>
	<path fill="#878787" d="M241.5,126.7c0,2.2-0.5,4-1.5,5.3s-2.4,2-4.1,2c-1.7,0-3.1-0.6-4.1-1.7v6.9h-2.5v-19.9h2.2l0.1,1.6
		c1-1.2,2.4-1.9,4.2-1.9c1.7,0,3.1,0.7,4.1,2c1,1.3,1.5,3.1,1.5,5.4V126.7z M239,126.4c0-1.6-0.3-2.9-1-3.8
		c-0.7-0.9-1.6-1.4-2.8-1.4c-1.5,0-2.6,0.7-3.3,2v6.9c0.7,1.3,1.9,2,3.4,2c1.2,0,2.1-0.5,2.8-1.4S239,128.3,239,126.4z"/>
	<path fill="#878787" d="M247.3,133.7h-2.5v-20.4h2.5V133.7z"/>
	<path fill="#878787" d="M251.2,115.5c0-0.4,0.1-0.7,0.4-1c0.2-0.3,0.6-0.4,1.1-0.4s0.8,0.1,1.1,0.4c0.2,0.3,0.4,0.6,0.4,1
		s-0.1,0.7-0.4,1c-0.2,0.3-0.6,0.4-1.1,0.4s-0.8-0.1-1.1-0.4C251.4,116.3,251.2,115.9,251.2,115.5z M253.9,133.7h-2.5v-14.4h2.5
		V133.7z"/>
	<path fill="#878787" d="M263.6,132c0.9,0,1.6-0.3,2.3-0.8c0.7-0.5,1-1.2,1.1-2h2.3c0,0.8-0.3,1.6-0.9,2.4c-0.5,0.7-1.2,1.3-2.1,1.8
		c-0.9,0.4-1.8,0.7-2.8,0.7c-2,0-3.5-0.7-4.7-2c-1.2-1.3-1.7-3.1-1.7-5.4v-0.4c0-1.4,0.3-2.6,0.8-3.7c0.5-1.1,1.3-1.9,2.2-2.5
		s2.1-0.9,3.4-0.9c1.6,0,3,0.5,4,1.4c1.1,1,1.6,2.2,1.7,3.8H267c-0.1-0.9-0.4-1.7-1.1-2.3s-1.4-0.9-2.3-0.9c-1.3,0-2.2,0.4-2.9,1.3
		s-1,2.2-1,3.9v0.5c0,1.7,0.3,2.9,1,3.8C261.4,131.5,262.3,132,263.6,132z"/>
	<path fill="#878787" d="M281,133.7c-0.1-0.3-0.3-0.8-0.3-1.5c-1.1,1.2-2.5,1.8-4.1,1.8c-1.4,0-2.6-0.4-3.5-1.2s-1.4-1.8-1.4-3.1
		c0-1.5,0.6-2.7,1.7-3.5s2.7-1.2,4.8-1.2h2.4v-1.1c0-0.9-0.3-1.5-0.8-2.1c-0.5-0.5-1.3-0.8-2.3-0.8c-0.9,0-1.6,0.2-2.2,0.7
		c-0.6,0.4-0.9,1-0.9,1.6H272c0-0.7,0.3-1.4,0.8-2.1s1.2-1.2,2.1-1.6c0.9-0.4,1.8-0.6,2.9-0.6c1.7,0,3,0.4,3.9,1.2s1.4,2,1.5,3.4
		v6.6c0,1.3,0.2,2.4,0.5,3.2v0.2H281z M276.9,131.9c0.8,0,1.5-0.2,2.2-0.6c0.7-0.4,1.2-0.9,1.5-1.6v-3h-1.9c-3,0-4.5,0.9-4.5,2.6
		c0,0.8,0.3,1.4,0.8,1.8S276.1,131.9,276.9,131.9z"/>
	<path fill="#878787" d="M290.2,115.9v3.5h2.7v1.9h-2.7v8.9c0,0.6,0.1,1,0.4,1.3c0.2,0.3,0.6,0.4,1.2,0.4c0.3,0,0.7-0.1,1.2-0.2v2
		c-0.6,0.2-1.3,0.3-1.9,0.3c-1.1,0-1.9-0.3-2.5-1c-0.6-0.7-0.8-1.6-0.8-2.8v-8.9h-2.6v-1.9h2.6v-3.5H290.2z"/>
	<path fill="#878787" d="M295.8,115.5c0-0.4,0.1-0.7,0.4-1c0.2-0.3,0.6-0.4,1.1-0.4s0.8,0.1,1.1,0.4c0.2,0.3,0.4,0.6,0.4,1
		s-0.1,0.7-0.4,1c-0.2,0.3-0.6,0.4-1.1,0.4s-0.8-0.1-1.1-0.4C295.9,116.3,295.8,115.9,295.8,115.5z M298.5,133.7H296v-14.4h2.5
		V133.7z"/>
	<path fill="#878787" d="M301.7,126.4c0-1.4,0.3-2.7,0.8-3.8s1.3-2,2.3-2.6s2.1-0.9,3.4-0.9c2,0,3.5,0.7,4.8,2
		c1.2,1.4,1.8,3.2,1.8,5.4v0.2c0,1.4-0.3,2.7-0.8,3.8c-0.5,1.1-1.3,2-2.3,2.6s-2.1,0.9-3.4,0.9c-1.9,0-3.5-0.7-4.7-2
		c-1.2-1.4-1.8-3.2-1.8-5.4V126.4z M304.2,126.7c0,1.6,0.4,2.9,1.1,3.8c0.7,1,1.7,1.4,3,1.4c1.3,0,2.2-0.5,3-1.5
		c0.7-1,1.1-2.4,1.1-4.1c0-1.6-0.4-2.9-1.1-3.8c-0.7-1-1.7-1.5-3-1.5c-1.2,0-2.2,0.5-2.9,1.4S304.2,124.9,304.2,126.7z"/>
	<path fill="#878787" d="M320.2,119.3l0.1,1.8c1.1-1.4,2.5-2.1,4.3-2.1c3,0,4.6,1.7,4.6,5.1v9.5h-2.5v-9.5c0-1-0.2-1.8-0.7-2.3
		c-0.5-0.5-1.2-0.7-2.2-0.7c-0.8,0-1.5,0.2-2.1,0.6c-0.6,0.4-1.1,1-1.4,1.7v10.2h-2.5v-14.4H320.2z"/>
	<path fill="#878787" d="M341.3,129.9c0-0.7-0.3-1.2-0.8-1.5c-0.5-0.4-1.4-0.7-2.6-1c-1.2-0.3-2.2-0.6-3-1s-1.3-0.8-1.6-1.3
		c-0.3-0.5-0.5-1.1-0.5-1.8c0-1.2,0.5-2.2,1.5-3c1-0.8,2.3-1.2,3.8-1.2c1.6,0,3,0.4,4,1.3c1,0.8,1.5,1.9,1.5,3.2h-2.5
		c0-0.7-0.3-1.3-0.9-1.7c-0.6-0.5-1.3-0.7-2.2-0.7c-0.9,0-1.6,0.2-2.1,0.6c-0.5,0.4-0.8,0.9-0.8,1.5c0,0.6,0.2,1,0.7,1.3
		s1.3,0.6,2.5,0.9c1.2,0.3,2.2,0.6,3,1c0.8,0.4,1.3,0.8,1.7,1.4c0.4,0.5,0.6,1.2,0.6,2c0,1.3-0.5,2.3-1.5,3.1c-1,0.8-2.4,1.2-4,1.2
		c-1.2,0-2.2-0.2-3.1-0.6c-0.9-0.4-1.6-1-2.1-1.7s-0.8-1.5-0.8-2.4h2.5c0,0.8,0.4,1.5,1,2c0.6,0.5,1.4,0.7,2.4,0.7
		c0.9,0,1.7-0.2,2.2-0.6C341,131,341.3,130.5,341.3,129.9z"/>
	<path fill="#878787" d="M366.4,130.3l2.8-11h2.5l-4.2,14.4h-2l-3.5-10.9l-3.4,10.9h-2l-4.2-14.4h2.4l2.8,10.8l3.3-10.8h2
		L366.4,130.3z"/>
	<path fill="#878787" d="M380.1,134c-1.9,0-3.5-0.6-4.8-1.9c-1.2-1.3-1.8-3-1.8-5.1v-0.5c0-1.4,0.3-2.7,0.8-3.8s1.3-2,2.3-2.6
		c1-0.6,2-1,3.2-1c1.9,0,3.3,0.6,4.4,1.8s1.6,3,1.6,5.3v1H376c0,1.4,0.5,2.6,1.2,3.4c0.8,0.9,1.8,1.3,3,1.3c0.9,0,1.6-0.2,2.2-0.5
		s1.1-0.8,1.6-1.4l1.5,1.2C384.4,133.1,382.5,134,380.1,134z M379.8,121.1c-1,0-1.8,0.4-2.5,1.1c-0.7,0.7-1.1,1.7-1.2,3h7.2V125
		c-0.1-1.2-0.4-2.2-1-2.9C381.7,121.4,380.9,121.1,379.8,121.1z"/>
	<path fill="#878787" d="M400.8,126.7c0,2.2-0.5,4-1.5,5.3c-1,1.3-2.4,2-4.1,2c-1.8,0-3.2-0.6-4.2-1.9l-0.1,1.7h-2.3v-20.4h2.5v7.6
		c1-1.2,2.4-1.8,4.1-1.8c1.7,0,3.1,0.7,4.1,2c1,1.3,1.5,3.1,1.5,5.4V126.7z M398.3,126.4c0-1.7-0.3-3-1-3.9s-1.6-1.4-2.8-1.4
		c-1.6,0-2.8,0.8-3.5,2.3v6.2c0.8,1.5,1.9,2.3,3.5,2.3c1.2,0,2.1-0.5,2.8-1.4C398,129.6,398.3,128.2,398.3,126.4z"/>
</g>
</svg>
