<?xml version="1.0" encoding="utf-8"?>
<!-- Generator: Adobe Illustrator 18.0.0, SVG Export Plug-In . SVG Version: 6.00 Build 0)  -->
<!DOCTYPE svg PUBLIC "-//W3C//DTD SVG 1.1//EN" "http://www.w3.org/Graphics/SVG/1.1/DTD/svg11.dtd">
<svg version="1.1" id="Capa_1" xmlns="http://www.w3.org/2000/svg" xmlns:xlink="http://www.w3.org/1999/xlink" x="0px" y="0px"
	 viewBox="0 0 1920 2000" enable-background="new 0 0 1920 2000" xml:space="preserve">
<g>
	<g>
		<path fill="#3AAA35" d="M130.2,1469.4v311.2c0,18.9,15.4,34.7,34.7,34.7h240.6c18.9,0,34.7-15.4,34.7-34.7v-547.5l-174.7,174.7
			C228.4,1444.6,181.1,1465.9,130.2,1469.4z"/>
		<path fill="#3AAA35" d="M560.1,1229.2v551.5c0,18.9,15.4,34.7,34.7,34.7h240.6c18.9,0,34.7-15.4,34.7-34.7V1456
			c-54.8-1.2-106.1-22.9-144.8-61.5L560.1,1229.2z"/>
		<path fill="#3AAA35" d="M990.1,1421.7v359c0,18.9,15.4,34.7,34.7,34.7h240.6c18.9,0,34.7-15.4,34.7-34.7v-662.3l-275.7,275.7
			C1013.8,1404.7,1002.3,1413.8,990.1,1421.7z"/>
		<path fill="#3AAA35" d="M1706.8,711.3L1420.1,998v782.6c0,18.9,15.4,34.7,34.7,34.7h240.6c18.9,0,34.7-15.4,34.7-34.7V733
			c-7.9-6.7-13.8-12.6-18.1-16.6L1706.8,711.3z"/>
		<path fill="#3AAA35" d="M1903.7,203.2c-11.4-12.2-28.8-18.5-50.9-18.5c-2,0-4.3,0-6.3,0c-112,5.1-223.7,10.7-335.7,15.8
			c-15,0.8-35.5,1.6-51.7,17.8c-5.1,5.1-9.1,11-12.2,18.1c-16.6,35.9,6.7,59.2,17.8,70.2l28,28.4c19.3,19.7,39.1,39.4,58.8,58.8
			L874.5,1071L570.4,766.9c-18.1-18.1-42.6-28.4-68.6-28.4c-26,0-50.1,10.3-68.2,28.4L28.4,1171.6c-37.9,37.9-37.9,99,0,136.9
			l18.1,18.1c18.1,18.1,42.6,28.4,68.6,28.4s50.1-10.3,68.2-28.4l318.3-318.3l304.1,304.1c18.1,18.1,42.6,28.4,68.6,28.4
			c26,0,50.1-10.3,68.6-28.4l763.7-763.7l86.4,86c10.3,10.3,24.5,24.5,46.2,24.5c9.1,0,18.1-2.4,27.6-7.5
			c6.3-3.6,11.8-7.5,16.6-12.2c17-17,20.1-38.7,20.9-55.6c3.2-72.6,6.7-145.2,10.3-218.1l5.1-109.3
			C1921,233.6,1915.9,215.8,1903.7,203.2z"/>
	</g>
</g>
</svg>
