<?xml version="1.0" encoding="utf-8"?>
<!-- Generator: Adobe Illustrator 18.0.0, SVG Export Plug-In . SVG Version: 6.00 Build 0)  -->
<!DOCTYPE svg PUBLIC "-//W3C//DTD SVG 1.1//EN" "http://www.w3.org/Graphics/SVG/1.1/DTD/svg11.dtd">
<svg version="1.1" id="Capa_1" xmlns="http://www.w3.org/2000/svg" xmlns:xlink="http://www.w3.org/1999/xlink" x="0px" y="0px"
	 viewBox="0 0 1920 2000" enable-background="new 0 0 1920 2000" xml:space="preserve">
<g>
	<path fill="#3AAA35" d="M706.4,262.8h1058.3v714.7h-583.2v134H1770c70.9,0,128.6-57.7,128.6-128.6V257.4
		c0-70.9-57.7-128.6-128.6-128.6H701c-70.9,0-128.6,57.7-128.6,128.6v224.9h134V262.8z"/>
	<path fill="#3AAA35" d="M1181.4,1292.3h374l122-121.9c11.6-11.6,24.5-21,38-29.2h-533.9V1292.3z"/>
	<path fill="#3AAA35" d="M1080.9,721.1c0-76.3-62.1-138.3-138.4-138.3H478.2c-76.3,0-138.4,62-138.4,138.3v189.3h64.4
		c26.2,0,50.6,6.5,72.7,17.3l1.3-210.9h468.7v648.9H571.4v126.5v61.3h360.9c-1.2-20.6,0.7-41.2,5.8-61.3
		c8.6-33.8,25.4-66.1,51.8-92.6c0.1-0.1,0.1-0.1,0.2-0.2c26-26,57.7-42.7,90.9-51.4L1080.9,721.1L1080.9,721.1z M667.2,1449
		c0-23.9,19.4-43.2,43.2-43.2c23.8,0,43.2,19.3,43.2,43.2c0,23.9-19.4,43.3-43.2,43.3C686.5,1492.2,667.2,1472.8,667.2,1449z"/>
	<path fill="#3AAA35" d="M404.2,994.2H83.5c-46,0-83.5,37.4-83.5,83.4v607.6c0,46,37.4,83.4,83.5,83.4h320.7
		c46,0,83.5-37.4,83.5-83.4v-607.6C487.6,1031.6,450.2,994.2,404.2,994.2z M100.5,1094.7h286.6v543.7H100.5V1094.7z M208.4,1703.5
		c0-19.6,15.8-35.4,35.5-35.4c19.5,0,35.3,15.8,35.3,35.4c0,19.6-15.8,35.5-35.3,35.5C224.2,1738.9,208.4,1723,208.4,1703.5z"/>
	<path fill="#3AAA35" d="M1748.4,1241.4l-387.1,387.1l-158-158.1c-39.2-39.3-102.9-39.3-142.1,0c-39.3,39.3-39.3,102.9,0,142.1
		l229.1,229.1c18.9,18.9,44.4,29.5,71.1,29.5c26.7,0,52.2-10.6,71.1-29.5l458.2-458.2c39.3-39.3,39.3-102.9,0-142.1
		C1851.3,1202.2,1787.7,1202.2,1748.4,1241.4z"/>
</g>
</svg>
