<?xml version="1.0" encoding="utf-8"?>
<!-- Generator: Adobe Illustrator 18.0.0, SVG Export Plug-In . SVG Version: 6.00 Build 0)  -->
<!DOCTYPE svg PUBLIC "-//W3C//DTD SVG 1.1//EN" "http://www.w3.org/Graphics/SVG/1.1/DTD/svg11.dtd">
<svg version="1.1" id="Capa_1" xmlns="http://www.w3.org/2000/svg" xmlns:xlink="http://www.w3.org/1999/xlink" x="0px" y="0px"
	 viewBox="0 0 1920 2000" enable-background="new 0 0 1920 2000" xml:space="preserve">
<path fill="#3AAA35" d="M1914,893.4c-3-27-34.5-47.3-61.7-47.3c-88,0-166-51.6-198.8-131.5c-33.4-81.8-11.9-177.2,53.7-237.4
	c20.6-18.9,23.2-50.5,5.9-72.4c-45-57.2-96.2-108.8-152.1-153.6c-21.9-17.5-54-15.1-73,5.9c-57.2,63.4-160,86.9-239.4,53.8
	c-82.6-34.8-134.8-118.5-129.7-208.4c1.7-28.3-19-52.8-47.1-56.1c-71.7-8.3-144.1-8.5-216-0.6c-27.8,3.1-48.4,27-47.5,54.9
	c3.1,89-49.6,171.3-131.5,204.8c-78.5,32.1-180.5,8.7-237.6-54.1c-18.9-20.7-50.4-23.2-72.4-6.1c-57.5,45.1-109.8,96.8-155.3,153.5
	c-17.7,22-15.1,54,5.7,72.9c66.8,60.5,88.4,156.8,53.7,239.5c-33.1,78.9-115.1,129.8-208.9,129.8c-30.4-1-52.1,19.5-55.5,47.2
	C-2,960.4-2.1,1033.9,6,1106.6c3,27.1,35.4,47.2,63,47.2c83.6-2.1,163.8,49.6,197.5,131.5c33.5,81.8,11.9,177.2-53.7,237.4
	c-20.5,18.9-23.2,50.4-5.8,72.3c44.6,56.8,95.8,108.5,151.8,153.7c22,17.7,54,15.2,73.1-5.8c57.4-63.5,160.2-87,239.3-53.8
	c82.9,34.7,135,118.4,129.9,208.3c-1.7,28.3,19,52.9,47.1,56.1c36.7,4.3,73.6,6.4,110.6,6.4c35.1,0,70.3-1.9,105.4-5.8
	c27.8-3.1,48.4-27.1,47.5-55c-3.2-89,49.6-171.3,131.4-204.7c79-32.3,180.6-8.7,237.7,54.1c19,20.7,50.3,23.2,72.4,6.1
	c57.4-45,109.6-96.7,155.3-153.6c17.7-22,15.2-54-5.7-73c-66.8-60.5-88.5-156.8-53.8-239.5c32.6-77.9,111.5-130.1,196.4-130.1
	l11.9,0.3c27.6,2.2,52.9-19,56.2-47.1C1922,1039.5,1922.1,966.1,1914,893.4z M960,1553.4c-305.7,0-553.4-247.8-553.4-553.4
	S654.3,446.6,960,446.6s553.4,247.8,553.4,553.4c0,103.7-28.6,200.8-78.3,283.8l-242.3-242.3c17.5-41.4,26.8-86.2,26.8-132.5
	c0-90.6-35.3-175.8-99.4-239.9c-64.1-64.1-149.3-99.4-239.9-99.4c-30.2,0-60.3,4-89.5,11.9c-12.8,3.5-23.2,14-26.6,26.8
	c-3.5,13.1,0.4,26.5,10.7,36.7c0,0,119.6,120.6,159.7,160.6c4.2,4.2,4.2,14.2,3.6,17.8l-0.4,2.6c-4,44-11.8,96.8-18.2,117.1
	c-0.9,0.9-1.7,1.6-2.6,2.5c-0.9,0.9-1.8,1.8-2.7,2.7c-20.6,6.6-74.2,14.5-118.9,18.5l0-0.2l-2,0.5c-0.4,0-1,0.1-1.9,0.1
	c-4.8,0-11.9-1.4-18.4-7.8c-41.7-41.7-156.6-155.8-156.6-155.8c-10.3-10.3-20.9-12.4-27.9-12.4c-16.4,0-31.1,11.9-35.8,28.9
	c-31.6,117.1,1.9,243.1,87.6,328.7c64.1,64.1,149.3,99.4,239.9,99.4c46.3,0,91.1-9.3,132.5-26.8l245,245
	C1171.8,1521.4,1069.7,1553.4,960,1553.4z"/>
</svg>
