<?xml version="1.0" encoding="utf-8"?>
<!-- Generator: Adobe Illustrator 18.0.0, SVG Export Plug-In . SVG Version: 6.00 Build 0)  -->
<!DOCTYPE svg PUBLIC "-//W3C//DTD SVG 1.1//EN" "http://www.w3.org/Graphics/SVG/1.1/DTD/svg11.dtd">
<svg version="1.1" id="Capa_1" xmlns="http://www.w3.org/2000/svg" xmlns:xlink="http://www.w3.org/1999/xlink" x="0px" y="0px"
	 viewBox="0 40 1920 1920" enable-background="new 0 40 1920 1920" xml:space="preserve">
<circle fill="#FFFFFF" cx="960" cy="1000" r="960"/>
<g>
	<g id="shopping-cart">
		<path fill="#3AAA35" d="M748.4,1317.3c-58.3,0-105.8,47.7-105.8,105.8s47.5,105.8,105.8,105.8s105.8-47.7,105.8-105.8
			S806.7,1317.3,748.4,1317.3z M431.1,471.1v105.8h105.8l190.4,402l-74,126.9c-5.4,15.8-10.6,37.1-10.6,52.9
			c0,58.1,47.5,105.8,105.8,105.8h634.7v-105.8H769.6c-5.4,0-10.6-5.2-10.6-10.6v-5.4l47.5-90h391.4c42.3,0,74-21.2,90-52.9
			l190.4-343.7c10.6-10.6,10.6-16,10.6-26.5c0-31.7-21.2-52.9-52.9-52.9H653.2l-47.5-105.6H431.1z M1277.3,1317.3
			c-58.1,0-105.8,47.7-105.8,105.8s47.7,105.8,105.8,105.8s105.8-47.7,105.8-105.8S1335.4,1317.3,1277.3,1317.3z"/>
	</g>
</g>
</svg>
