<?xml version="1.0" encoding="utf-8"?>
<!-- Generator: Adobe Illustrator 18.0.0, SVG Export Plug-In . SVG Version: 6.00 Build 0)  -->
<!DOCTYPE svg PUBLIC "-//W3C//DTD SVG 1.1//EN" "http://www.w3.org/Graphics/SVG/1.1/DTD/svg11.dtd">
<svg version="1.1" id="Capa_1" xmlns="http://www.w3.org/2000/svg" xmlns:xlink="http://www.w3.org/1999/xlink" x="0px" y="0px"
	 viewBox="0 0 1920 2000" enable-background="new 0 0 1920 2000" xml:space="preserve">
<g>
	<g>
		<path fill="#3AAA35" d="M1570.9,1624c0,24.1-19.5,43.6-43.6,43.6h-305.5c-24.1,0-43.6-19.5-43.6-43.6V990.9
			c-55.2,2.4-113.6,3.8-174.5,4.3v454.2c0,24.1-19.5,43.7-43.6,43.7H436.4c-24.1,0-43.6-19.5-43.6-43.7V963.2
			c-67.4-8.1-125.8-16.7-174.5-24.9v729.3c0,48.2,39.1,87.2,87.3,87.2h1309.1c48.2,0,87.3-39.1,87.3-87.2V938.3
			c-38.1,6.4-81.4,13.1-130.9,19.5L1570.9,1624L1570.9,1624z"/>
		<path fill="#3AAA35" d="M1902.2,681l-305.4-401.4c-16.5-21.7-42.2-34.4-69.5-34.4H392.7c-27.3,0-52.9,12.7-69.5,34.4L17.8,681
			C0.2,704.1-4.7,734.5,4.7,762c9.4,27.5,31.9,48.6,59.9,56.1c13.7,3.7,342,90.2,895.4,90.2s881.7-86.6,895.4-90.2
			c28-7.5,50.5-28.6,59.9-56.1C1924.7,734.5,1919.8,704.1,1902.2,681z"/>
		<circle fill="#3AAA35" cx="1483.6" cy="1231.2" r="43.6"/>
	</g>
</g>
</svg>
