<?xml version="1.0" encoding="utf-8"?>
<!-- Generator: Adobe Illustrator 18.0.0, SVG Export Plug-In . SVG Version: 6.00 Build 0)  -->
<!DOCTYPE svg PUBLIC "-//W3C//DTD SVG 1.1//EN" "http://www.w3.org/Graphics/SVG/1.1/DTD/svg11.dtd">
<svg version="1.1" id="Capa_1" xmlns="http://www.w3.org/2000/svg" xmlns:xlink="http://www.w3.org/1999/xlink" x="0px" y="0px"
	 viewBox="0 40 1920 1920" enable-background="new 0 40 1920 1920" xml:space="preserve">
<circle fill="#FFFFFF" cx="960" cy="1000" r="960"/>
<g>
	<g>
		<path fill="#3AAA35" d="M1308.7,1356.2c0,13.8-11.1,24.9-24.9,24.9h-174.4c-13.8,0-24.9-11.1-24.9-24.9V994.8
			c-31.5,1.4-64.8,2.2-99.6,2.5v259.3c0,13.8-11.1,24.9-24.9,24.9H661.1c-13.8,0-24.9-11.1-24.9-24.9V979
			c-38.5-4.6-71.8-9.5-99.6-14.2v416.3c0,27.5,22.3,49.8,49.8,49.8h747.3c27.5,0,49.8-22.3,49.8-49.8V964.8
			c-21.7,3.7-46.5,7.5-74.7,11.1L1308.7,1356.2L1308.7,1356.2z"/>
		<path fill="#3AAA35" d="M1497.8,817.9l-174.3-229.1c-9.4-12.4-24.1-19.6-39.7-19.6H636.2c-15.6,0-30.2,7.2-39.7,19.6L422.2,817.9
			c-10,13.2-12.8,30.5-7.5,46.2s18.2,27.7,34.2,32c7.8,2.1,195.2,51.5,511.1,51.5s503.3-49.4,511.1-51.5c16-4.3,28.8-16.3,34.2-32
			C1510.7,848.4,1507.9,831.1,1497.8,817.9z"/>
		<circle fill="#3AAA35" cx="1258.9" cy="1132" r="24.9"/>
	</g>
</g>
</svg>
